HIERARCHY
ROOT Hips
{
	OFFSET -0.179506 -22.333345 2.821913
	CHANNELS 6 Xposition Yposition Zposition Zrotation Yrotation Xrotation 
	JOINT LeftUpLeg
	{
		OFFSET 6.951974 -9.140623 -0.681533
		CHANNELS 3 Zrotation Yrotation Xrotation
		JOINT LeftLeg
		{
			OFFSET 3.427654 -37.519855 -0.449580
			CHANNELS 3 Zrotation Yrotation Xrotation
			JOINT LeftFoot
			{
				OFFSET -1.359570 -39.796059 -4.369333
				CHANNELS 3 Zrotation Yrotation Xrotation
				JOINT LeftToe
				{
					OFFSET 2.635814 -5.579078 11.928840
					CHANNELS 3 Zrotation Yrotation Xrotation
					End Site
					{
						OFFSET 0.000000 0.000000 0.000000
					}
				}
			}
		}
	}
	JOINT RightUpLeg
	{
		OFFSET -6.767048 -9.052170 -0.431982
		CHANNELS 3 Zrotation Yrotation Xrotation
		JOINT RightLeg
		{
			OFFSET -3.829005 -38.256897 -0.885003
			CHANNELS 3 Zrotation Yrotation Xrotation
			JOINT RightFoot
			{
				OFFSET 1.577377 -39.841461 -4.231180
				CHANNELS 3 Zrotation Yrotation Xrotation
				JOINT RightToe
				{
					OFFSET -2.537174 -4.814398 12.334795
					CHANNELS 3 Zrotation Yrotation Xrotation
					End Site
					{
						OFFSET 0.000000 0.000000 0.000000
					}
				}
			}
		}
	}
	JOINT Spine
	{
		OFFSET -0.253288 10.896323 -2.669631
		CHANNELS 3 Zrotation Yrotation Xrotation
		JOINT Spine1
		{
			OFFSET 0.548704 13.518043 0.109247
			CHANNELS 3 Zrotation Yrotation Xrotation
			JOINT Spine2
			{
				OFFSET 0.145701 5.292222 2.542457
				CHANNELS 3 Zrotation Yrotation Xrotation
				JOINT Neck
				{
					OFFSET -0.277840 21.387037 -4.285703
					CHANNELS 3 Zrotation Yrotation Xrotation
					JOINT Head
					{
						OFFSET 0.515184 6.496960 5.134897
						CHANNELS 3 Zrotation Yrotation Xrotation
						End Site
						{
							OFFSET 0.000000 0.000000 0.000000
						}
					}
				}
				JOINT LeftShoulder
				{
					OFFSET 7.884473 12.174932 -3.408961
					CHANNELS 3 Zrotation Yrotation Xrotation
					JOINT LeftArm
					{
						OFFSET 9.097692 3.046888 -0.886815
						CHANNELS 3 Zrotation Yrotation Xrotation
						JOINT LeftForeArm
						{
							OFFSET 25.961220 -1.277207 -2.745643
							CHANNELS 3 Zrotation Yrotation Xrotation
							JOINT LeftHand
							{
								OFFSET 24.923361 0.898606 -0.117091
								CHANNELS 3 Zrotation Yrotation Xrotation
								End Site
								{
									OFFSET 0.000000 0.000000 0.000000
								}
							}
						}
					}
				}
				JOINT RightShoulder
				{
					OFFSET -8.175920 11.883285 -3.861528
					CHANNELS 3 Zrotation Yrotation Xrotation
					JOINT RightArm
					{
						OFFSET -9.601238 3.255117 -0.914307
						CHANNELS 3 Zrotation Yrotation Xrotation
						JOINT RightForeArm
						{
							OFFSET -25.374195 -1.332924 -2.140099
							CHANNELS 3 Zrotation Yrotation Xrotation
							JOINT RightHand
							{
								OFFSET -25.529810 0.777228 -0.555919
								CHANNELS 3 Zrotation Yrotation Xrotation
								End Site
								{
									OFFSET 0.000000 0.000000 0.000000
								}
							}
						}
					}
				}
			}
		}
	}
}
MOTION
Frames: 7
Frame Time: 0.033333
-10.444148 -97.680946 89.828857 -121.955036 4.500479 82.159656 13.813111 5.822619 -4.241204 -4.489794 7.931518 33.396948 4.907391 9.472184 -30.603893 nan nan nan -11.979252 -12.392786 -12.474898 0.550593 -17.647728 23.399029 6.164397 -5.586786 -8.513274 nan nan nan -4.012759 3.502420 9.827364 7.333578 -4.353623 4.528880 3.336847 -1.320624 -0.252170 6.659865 -14.625502 12.405466 3.224441 -21.593214 23.012709 -12.209524 -14.642330 -1.219733 -64.995140 -40.390615 24.801147 167.026320 -71.813181 -130.038804 2.817178 -15.032171 -18.155167 15.474324 8.377390 -3.100056 41.870904 18.990710 -2.061950 -82.014028 46.463651 -58.113843 4.509138 4.628484 -4.582481 
-10.449946 -97.680687 89.817093 -121.932983 4.588827 82.072530 13.936876 5.917403 -4.145932 -4.526592 7.803770 33.353136 4.854281 9.442209 -30.672879 nan nan nan -11.906686 -12.353825 -12.388247 0.515934 -17.675688 23.348858 6.124493 -5.772908 -8.465232 nan nan nan -3.943295 3.436489 9.940071 7.312207 -4.303681 4.425989 3.449708 -1.434925 -0.017030 6.673128 -14.594484 11.861624 2.830746 -21.646117 23.468274 -12.191282 -14.755862 -0.796591 -65.071988 -40.567604 24.470182 166.862197 -71.461159 -129.480419 2.243920 -15.201921 -18.465822 15.354341 8.446053 -3.128313 41.927566 19.219509 -2.079958 -81.781724 46.329214 -57.699249 4.714898 4.874285 -4.853510 
-10.453905 -97.683090 89.809227 -121.941993 4.576328 82.091886 13.928884 5.961629 -4.144951 -4.535279 7.783147 33.345193 4.866305 9.439935 -30.637736 nan nan nan -11.906669 -12.402659 -12.401910 0.472507 -17.656437 23.368539 6.156476 -5.699965 -8.478047 nan nan nan -3.849230 3.367270 10.038846 7.247329 -4.198098 4.179478 3.357052 -1.410472 0.059313 6.676187 -14.616959 11.733243 2.678633 -21.772826 23.823803 -11.985261 -14.404815 -1.330317 -65.508535 -40.416196 24.817788 167.531761 -71.677591 -130.067962 2.235848 -15.204643 -18.729015 15.300128 8.141782 -3.226873 42.202411 19.403692 -1.901698 -81.719120 46.394288 -57.499273 4.724759 4.895705 -4.819614 
-10.450010 -97.680504 89.820984 -121.901661 4.585221 82.118320 13.927802 5.912123 -4.211612 -4.498940 7.836483 33.415782 4.854496 9.434566 -30.609879 nan nan nan -11.897742 -12.397418 -12.375661 0.482395 -17.695650 23.321773 6.202992 -5.661162 -8.526420 nan nan nan -3.834083 3.348487 10.093549 7.229964 -4.210302 4.042094 3.343051 -1.369315 0.092635 6.697949 -14.629031 11.728002 2.715069 -21.760923 23.936023 -11.979499 -14.547262 -1.345131 -65.630452 -40.385060 24.948558 167.601017 -71.791498 -130.241513 2.850483 -15.383559 -18.591230 15.278892 8.168484 -3.110162 42.217559 19.298868 -1.943448 -81.835200 46.342895 -57.602029 4.440018 4.955643 -4.733955 
-10.453262 -97.666870 89.828896 -121.892896 4.581521 82.144263 13.897631 5.725926 -4.296904 -4.410491 7.977310 33.519023 4.943686 9.485210 -30.662369 nan nan nan -11.913750 -12.412910 -12.392962 0.492651 -17.782372 23.328038 6.227734 -5.688505 -8.484922 nan nan nan -3.831224 3.425701 10.053428 7.191166 -4.209407 4.008437 3.293067 -1.332520 0.108824 6.838046 -14.616206 11.693044 2.753767 -21.724621 23.932821 -11.929014 -14.642056 -1.242315 -65.727370 -40.435745 25.048087 167.595370 -71.678179 -130.073621 2.770678 -15.271614 -18.520604 15.439189 8.059445 -3.207376 42.179620 19.237231 -1.881038 -81.814322 46.300370 -57.535695 4.627981 4.961471 -4.723564 
-10.444073 -97.651009 89.826637 -121.832469 4.520868 82.297359 13.861119 5.858519 -4.489821 -4.407258 7.912249 33.495707 5.173481 9.414173 -30.710538 nan nan nan -11.974400 -12.500294 -12.536679 0.545715 -17.803937 23.320975 6.266938 -5.753263 -8.328866 nan nan nan -3.836194 3.519746 9.910280 7.095685 -4.186512 3.798298 3.124470 -1.395289 0.223394 7.217496 -14.524413 11.620510 2.681526 -21.669604 24.010582 -11.730156 -14.681470 -1.033701 -65.779035 -40.696327 25.175154 167.552089 -71.636158 -129.673782 2.668231 -14.904541 -18.488143 15.957926 7.585488 -3.752002 42.203365 19.484772 -1.461088 -81.438197 46.342797 -56.997314 5.075080 4.910130 -4.640405 
-10.443187 -97.647263 89.822647 -121.861716 4.475064 82.343126 13.827807 5.931638 -4.522989 -4.432035 7.890000 33.453634 5.176040 9.457334 -30.705211 nan nan nan -12.016345 -12.446839 -12.564332 0.621189 -17.714877 23.261359 6.248875 -5.864196 -8.214945 nan nan nan -3.810857 3.586102 9.774160 7.046624 -4.140690 3.749711 2.979871 -1.470743 0.369028 7.485790 -14.434126 11.536269 2.592933 -21.644057 24.053787 -11.614382 -14.716496 -0.916197 -65.784211 -40.934580 25.261796 167.209220 -71.603180 -129.218634 2.459591 -14.720733 -18.781586 16.418286 7.211515 -4.152958 42.137135 19.861223 -1.081782 -81.162839 46.350121 -56.555906 5.514674 4.806401 -4.579991 
